# xmcd
#
# Track frame offsets:
#	150
#	13005
#	28258
#	45057
#	61103
#	76658
#	89771
#	106115
#	121746
#	138972
#	155863
#	168782
#	185788
#	200153
#	213057
#	226743
#	236863
#	256316
#	276720
#	291154
#	308117
#	318407
#	339053
#
# Disc length: 4684 seconds
#
# Revision: 0
# Processed by: cddbd v1.5.2PL0 Copyright (c) Steve Scherf et al.
# Submitted via: EZCDAudioConverter 2.2.2.1
#
DISCID=3d124a17
DTITLE=Leonardo Favio - Exitos de Oro
DYEAR=2002
DGENRE=Balada
TTITLE0=Fuiste Mia Un Verano
TTITLE1=O Quizas Simplemente Le Regale Una Rosa
TTITLE2=Ella Ya Me Olvido
TTITLE3=Ding, Dong, Las Cosas Del Amor
TTITLE4=Quiero Aprender De Memoria
TTITLE5=Mi Amante Niña Mi Compañera
TTITLE6=Alguna Vez Una Cancion
TTITLE7=Ni El Clavel Ni La Rosa
TTITLE8=No Ser Dios Y Cuidar
TTITLE9=La Dicha Que Me Fue Negada
TTITLE10=Para Saber Como Es La Soledad
TTITLE11=Amanecer En La Espera
TTITLE12=Fue Una Noche De Verano
TTITLE13=Anny
TTITLE14=Como Me Duele La Piel
TTITLE15=Mi Tristeza Es Mia Y Nada Mas
TTITLE16=Asi Es La Corilota
TTITLE17=Chiquillada
TTITLE18=Hablemos De Amor
TTITLE19=Era... Como Podria Explicarte
TTITLE20=No Juegues Mas
TTITLE21=La Cita
TTITLE22=La Rubia Del Cabaret
EXTD=
EXTT0=
EXTT1=
EXTT2=
EXTT3=
EXTT4=
EXTT5=
EXTT6=
EXTT7=
EXTT8=
EXTT9=
EXTT10=
EXTT11=
EXTT12=
EXTT13=
EXTT14=
EXTT15=
EXTT16=
EXTT17=
EXTT18=
EXTT19=
EXTT20=
EXTT21=
EXTT22=
PLAYORDER=
